<mxfile host="drawio-plugin" modified="2023-05-22T13:23:32.859Z" agent="5.0 (Windows NT 6.2; Win64; x64) AppleWebKit/537.36 (KHTML, like Gecko) Chrome/104.0.5112.102 Safari/537.36" etag="Iz_HyHi-9veA3CZvh_E0" version="20.5.3" type="embed"><diagram id="KcAglNX9ycnjQGlBwvj0" name="Page-1"><mxGraphModel dx="1743" dy="619" grid="1" gridSize="10" guides="1" tooltips="1" connect="1" arrows="1" fold="1" page="1" pageScale="1" pageWidth="850" pageHeight="1100" math="0" shadow="0"><root><mxCell id="0"/><mxCell id="1" parent="0"/><mxCell id="4" value="" style="ellipse;html=1;shape=startState;fillColor=#000000;strokeColor=#ff0000;" parent="1" vertex="1"><mxGeometry x="405" width="30" height="30" as="geometry"/></mxCell><mxCell id="5" value="" style="edgeStyle=orthogonalEdgeStyle;html=1;verticalAlign=bottom;endArrow=open;endSize=8;strokeColor=#ff0000;rounded=0;entryX=0.75;entryY=0.5;entryDx=0;entryDy=0;entryPerimeter=0;" parent="1" source="4" target="8" edge="1"><mxGeometry relative="1" as="geometry"><mxPoint x="420" y="70" as="targetPoint"/></mxGeometry></mxCell><mxCell id="8" value="" style="shape=line;html=1;strokeWidth=6;strokeColor=#ff0000;" parent="1" vertex="1"><mxGeometry x="360" y="60" width="80" height="10" as="geometry"/></mxCell><mxCell id="9" value="" style="edgeStyle=orthogonalEdgeStyle;html=1;verticalAlign=bottom;endArrow=open;endSize=8;strokeColor=#ff0000;rounded=0;exitX=0.25;exitY=0.5;exitDx=0;exitDy=0;exitPerimeter=0;entryX=1;entryY=0.5;entryDx=0;entryDy=0;" parent="1" source="8" target="10" edge="1"><mxGeometry relative="1" as="geometry"><mxPoint x="350" y="90" as="targetPoint"/><mxPoint x="100" y="90" as="sourcePoint"/><Array as="points"><mxPoint x="380" y="100"/></Array></mxGeometry></mxCell><mxCell id="10" value="Quit Game" style="rounded=1;whiteSpace=wrap;html=1;arcSize=40;fontColor=#000000;fillColor=#ffffc0;strokeColor=#ff0000;" parent="1" vertex="1"><mxGeometry x="220" y="80" width="120" height="40" as="geometry"/></mxCell><mxCell id="11" value="" style="edgeStyle=orthogonalEdgeStyle;html=1;verticalAlign=bottom;endArrow=open;endSize=8;strokeColor=#ff0000;rounded=0;entryX=1;entryY=0.5;entryDx=0;entryDy=0;" parent="1" source="10" target="12" edge="1"><mxGeometry relative="1" as="geometry"><mxPoint x="100" y="280" as="targetPoint"/></mxGeometry></mxCell><mxCell id="12" value="" style="ellipse;html=1;shape=endState;fillColor=#000000;strokeColor=#ff0000;" parent="1" vertex="1"><mxGeometry x="165" y="85" width="30" height="30" as="geometry"/></mxCell><mxCell id="13" value="Play Game" style="rounded=1;whiteSpace=wrap;html=1;arcSize=40;fontColor=#000000;fillColor=#ffffc0;strokeColor=#ff0000;" parent="1" vertex="1"><mxGeometry x="360" y="120" width="120" height="40" as="geometry"/></mxCell><mxCell id="14" value="" style="edgeStyle=orthogonalEdgeStyle;html=1;verticalAlign=bottom;endArrow=open;endSize=8;strokeColor=#ff0000;rounded=0;exitX=0.5;exitY=1;exitDx=0;exitDy=0;" parent="1" source="13" target="16" edge="1"><mxGeometry relative="1" as="geometry"><mxPoint x="430" y="180" as="targetPoint"/><mxPoint x="430" y="170" as="sourcePoint"/></mxGeometry></mxCell><mxCell id="15" value="" style="edgeStyle=orthogonalEdgeStyle;html=1;verticalAlign=bottom;endArrow=open;endSize=8;strokeColor=#ff0000;rounded=0;exitX=0.75;exitY=0.5;exitDx=0;exitDy=0;exitPerimeter=0;entryX=0.5;entryY=0;entryDx=0;entryDy=0;" parent="1" source="8" target="13" edge="1"><mxGeometry relative="1" as="geometry"><mxPoint x="440" y="110" as="targetPoint"/><mxPoint x="430" y="170" as="sourcePoint"/></mxGeometry></mxCell><mxCell id="16" value="" style="shape=line;html=1;strokeWidth=6;strokeColor=#ff0000;" parent="1" vertex="1"><mxGeometry x="380" y="200" width="80" height="10" as="geometry"/></mxCell><mxCell id="17" value="" style="edgeStyle=orthogonalEdgeStyle;html=1;verticalAlign=bottom;endArrow=open;endSize=8;strokeColor=#ff0000;rounded=0;entryX=1;entryY=0.5;entryDx=0;entryDy=0;" parent="1" source="16" target="19" edge="1"><mxGeometry relative="1" as="geometry"><mxPoint x="360" y="190" as="targetPoint"/></mxGeometry></mxCell><mxCell id="19" value="Continue Game" style="rounded=1;whiteSpace=wrap;html=1;arcSize=40;fontColor=#000000;fillColor=#ffffc0;strokeColor=#ff0000;" parent="1" vertex="1"><mxGeometry x="220" y="185" width="120" height="40" as="geometry"/></mxCell><mxCell id="20" value="" style="edgeStyle=orthogonalEdgeStyle;html=1;verticalAlign=bottom;endArrow=open;endSize=8;strokeColor=#ff0000;rounded=0;entryX=0.5;entryY=0;entryDx=0;entryDy=0;" parent="1" source="19" target="21" edge="1"><mxGeometry relative="1" as="geometry"><mxPoint x="260" y="390" as="targetPoint"/></mxGeometry></mxCell><mxCell id="21" value="&lt;font color=&quot;#000000&quot;&gt;Game loaded?&lt;/font&gt;" style="rhombus;whiteSpace=wrap;html=1;fillColor=#ffffc0;strokeColor=#ff0000;" parent="1" vertex="1"><mxGeometry x="230" y="280" width="100" height="60" as="geometry"/></mxCell><mxCell id="22" value="&lt;font color=&quot;#000000&quot;&gt;no&lt;/font&gt;" style="edgeStyle=orthogonalEdgeStyle;html=1;align=left;verticalAlign=bottom;endArrow=open;endSize=8;strokeColor=#ff0000;rounded=0;entryX=0.25;entryY=0.5;entryDx=0;entryDy=0;entryPerimeter=0;" parent="1" source="21" target="16" edge="1"><mxGeometry x="-1" relative="1" as="geometry"><mxPoint x="410" y="230" as="targetPoint"/></mxGeometry></mxCell><mxCell id="23" value="&lt;font color=&quot;#000000&quot;&gt;yes&lt;/font&gt;" style="edgeStyle=orthogonalEdgeStyle;html=1;align=left;verticalAlign=top;endArrow=open;endSize=8;strokeColor=#ff0000;rounded=0;entryX=0.404;entryY=0;entryDx=0;entryDy=0;entryPerimeter=0;" parent="1" source="21" target="55" edge="1"><mxGeometry x="-1" relative="1" as="geometry"><mxPoint x="180" y="750" as="targetPoint"/></mxGeometry></mxCell><mxCell id="24" value="Back" style="rounded=1;whiteSpace=wrap;html=1;arcSize=40;fontColor=#000000;fillColor=#ffffc0;strokeColor=#ff0000;" parent="1" vertex="1"><mxGeometry x="520" y="185" width="120" height="40" as="geometry"/></mxCell><mxCell id="25" value="" style="edgeStyle=orthogonalEdgeStyle;html=1;verticalAlign=bottom;endArrow=open;endSize=8;strokeColor=#ff0000;rounded=0;fontColor=#000000;entryX=1;entryY=0.5;entryDx=0;entryDy=0;entryPerimeter=0;exitX=0.5;exitY=0;exitDx=0;exitDy=0;" parent="1" source="24" target="8" edge="1"><mxGeometry relative="1" as="geometry"><mxPoint x="580" y="300" as="targetPoint"/></mxGeometry></mxCell><mxCell id="26" value="" style="edgeStyle=orthogonalEdgeStyle;html=1;verticalAlign=bottom;endArrow=open;endSize=8;strokeColor=#ff0000;rounded=0;fontColor=#000000;exitX=1;exitY=0.5;exitDx=0;exitDy=0;exitPerimeter=0;entryX=0;entryY=0.5;entryDx=0;entryDy=0;" parent="1" source="16" target="24" edge="1"><mxGeometry relative="1" as="geometry"><mxPoint x="590" y="310" as="targetPoint"/><mxPoint x="590" y="235" as="sourcePoint"/></mxGeometry></mxCell><mxCell id="29" value="New Game" style="rounded=1;whiteSpace=wrap;html=1;arcSize=40;fontColor=#000000;fillColor=#ffffc0;strokeColor=#ff0000;" parent="1" vertex="1"><mxGeometry x="520" y="260" width="120" height="40" as="geometry"/></mxCell><mxCell id="30" value="" style="edgeStyle=orthogonalEdgeStyle;html=1;verticalAlign=bottom;endArrow=open;endSize=8;strokeColor=#ff0000;rounded=0;fontColor=#000000;entryX=0.499;entryY=0.42;entryDx=0;entryDy=0;entryPerimeter=0;" parent="1" source="29" target="32" edge="1"><mxGeometry relative="1" as="geometry"><mxPoint x="580" y="360" as="targetPoint"/></mxGeometry></mxCell><mxCell id="31" value="" style="edgeStyle=orthogonalEdgeStyle;html=1;verticalAlign=bottom;endArrow=open;endSize=8;strokeColor=#ff0000;rounded=0;fontColor=#000000;exitX=0.75;exitY=0.5;exitDx=0;exitDy=0;exitPerimeter=0;entryX=0;entryY=0.5;entryDx=0;entryDy=0;" parent="1" source="16" target="29" edge="1"><mxGeometry relative="1" as="geometry"><mxPoint x="600" y="320" as="targetPoint"/><mxPoint x="600" y="245" as="sourcePoint"/><Array as="points"><mxPoint x="440" y="280"/></Array></mxGeometry></mxCell><mxCell id="32" value="" style="shape=line;html=1;strokeWidth=6;strokeColor=#ff0000;fontColor=#000000;" parent="1" vertex="1"><mxGeometry x="520" y="360" width="120" height="10" as="geometry"/></mxCell><mxCell id="33" value="" style="edgeStyle=orthogonalEdgeStyle;html=1;verticalAlign=bottom;endArrow=open;endSize=8;strokeColor=#ff0000;rounded=0;fontColor=#000000;entryX=1;entryY=0.5;entryDx=0;entryDy=0;exitX=0.251;exitY=0.354;exitDx=0;exitDy=0;exitPerimeter=0;" parent="1" source="32" target="34" edge="1"><mxGeometry relative="1" as="geometry"><mxPoint x="480" y="360" as="targetPoint"/><Array as="points"><mxPoint x="550" y="340"/></Array></mxGeometry></mxCell><mxCell id="34" value="Back" style="rounded=1;whiteSpace=wrap;html=1;arcSize=40;fontColor=#000000;fillColor=#ffffc0;strokeColor=#ff0000;" parent="1" vertex="1"><mxGeometry x="360" y="320" width="120" height="40" as="geometry"/></mxCell><mxCell id="35" value="" style="edgeStyle=orthogonalEdgeStyle;html=1;verticalAlign=bottom;endArrow=open;endSize=8;strokeColor=#ff0000;rounded=0;fontColor=#000000;entryX=0.498;entryY=0.38;entryDx=0;entryDy=0;entryPerimeter=0;" parent="1" source="34" target="16" edge="1"><mxGeometry relative="1" as="geometry"><mxPoint x="420" y="260" as="targetPoint"/></mxGeometry></mxCell><mxCell id="36" value="Enter Name" style="rounded=1;whiteSpace=wrap;html=1;arcSize=40;fontColor=#000000;fillColor=#ffffc0;strokeColor=#ff0000;" parent="1" vertex="1"><mxGeometry x="640" y="400" width="120" height="40" as="geometry"/></mxCell><mxCell id="37" value="" style="edgeStyle=orthogonalEdgeStyle;html=1;verticalAlign=bottom;endArrow=open;endSize=8;strokeColor=#ff0000;rounded=0;fontColor=#000000;entryX=1;entryY=0.5;entryDx=0;entryDy=0;entryPerimeter=0;" parent="1" source="36" target="32" edge="1"><mxGeometry relative="1" as="geometry"><mxPoint x="580" y="500" as="targetPoint"/></mxGeometry></mxCell><mxCell id="38" value="" style="edgeStyle=orthogonalEdgeStyle;html=1;verticalAlign=bottom;endArrow=open;endSize=8;strokeColor=#ff0000;rounded=0;fontColor=#000000;exitX=0.75;exitY=0.5;exitDx=0;exitDy=0;exitPerimeter=0;entryX=0;entryY=0.5;entryDx=0;entryDy=0;" parent="1" source="32" target="36" edge="1"><mxGeometry relative="1" as="geometry"><mxPoint x="610" y="330" as="targetPoint"/><mxPoint x="610" y="255" as="sourcePoint"/></mxGeometry></mxCell><mxCell id="39" value="Choose Game" style="rounded=1;whiteSpace=wrap;html=1;arcSize=40;fontColor=#000000;fillColor=#ffffc0;strokeColor=#ff0000;" parent="1" vertex="1"><mxGeometry x="640" y="480" width="120" height="40" as="geometry"/></mxCell><mxCell id="40" value="" style="edgeStyle=orthogonalEdgeStyle;html=1;verticalAlign=bottom;endArrow=open;endSize=8;strokeColor=#ff0000;rounded=0;fontColor=#000000;entryX=0.75;entryY=0.5;entryDx=0;entryDy=0;entryPerimeter=0;" parent="1" source="39" target="32" edge="1"><mxGeometry relative="1" as="geometry"><mxPoint x="630" y="340" as="targetPoint"/><Array as="points"><mxPoint x="800" y="500"/><mxPoint x="800" y="320"/><mxPoint x="610" y="320"/></Array></mxGeometry></mxCell><mxCell id="41" value="" style="edgeStyle=orthogonalEdgeStyle;html=1;verticalAlign=bottom;endArrow=open;endSize=8;strokeColor=#ff0000;rounded=0;fontColor=#000000;exitX=0.495;exitY=0.66;exitDx=0;exitDy=0;exitPerimeter=0;entryX=0;entryY=0.5;entryDx=0;entryDy=0;" parent="1" source="32" target="39" edge="1"><mxGeometry relative="1" as="geometry"><mxPoint x="620" y="340" as="targetPoint"/><mxPoint x="620" y="265" as="sourcePoint"/></mxGeometry></mxCell><mxCell id="42" value="Next" style="rounded=1;whiteSpace=wrap;html=1;arcSize=40;fontColor=#000000;fillColor=#ffffc0;strokeColor=#ff0000;" parent="1" vertex="1"><mxGeometry x="480" y="520" width="120" height="40" as="geometry"/></mxCell><mxCell id="43" value="" style="edgeStyle=orthogonalEdgeStyle;html=1;verticalAlign=bottom;endArrow=open;endSize=8;strokeColor=#ff0000;rounded=0;fontColor=#000000;" parent="1" source="42" target="44" edge="1"><mxGeometry relative="1" as="geometry"><mxPoint x="540" y="590" as="targetPoint"/></mxGeometry></mxCell><mxCell id="44" value="" style="shape=line;html=1;strokeWidth=6;strokeColor=#ff0000;fontColor=#000000;" parent="1" vertex="1"><mxGeometry x="440" y="600" width="200" height="10" as="geometry"/></mxCell><mxCell id="45" value="" style="edgeStyle=orthogonalEdgeStyle;html=1;verticalAlign=bottom;endArrow=open;endSize=8;strokeColor=#ff0000;rounded=0;fontColor=#000000;exitX=0.25;exitY=0.5;exitDx=0;exitDy=0;exitPerimeter=0;entryX=0.5;entryY=1;entryDx=0;entryDy=0;" parent="1" source="44" target="46" edge="1"><mxGeometry relative="1" as="geometry"><mxPoint x="460" y="530" as="targetPoint"/><Array as="points"><mxPoint x="460" y="605"/></Array></mxGeometry></mxCell><mxCell id="46" value="Back" style="rounded=1;whiteSpace=wrap;html=1;arcSize=40;fontColor=#000000;fillColor=#ffffc0;strokeColor=#ff0000;" parent="1" vertex="1"><mxGeometry x="400" y="440" width="120" height="40" as="geometry"/></mxCell><mxCell id="47" value="" style="edgeStyle=orthogonalEdgeStyle;html=1;verticalAlign=bottom;endArrow=open;endSize=8;strokeColor=#ff0000;rounded=0;fontColor=#000000;entryX=0;entryY=0.5;entryDx=0;entryDy=0;entryPerimeter=0;" parent="1" source="46" target="32" edge="1"><mxGeometry relative="1" as="geometry"><mxPoint x="440" y="530" as="targetPoint"/><Array as="points"><mxPoint x="460" y="365"/></Array></mxGeometry></mxCell><mxCell id="48" value="" style="edgeStyle=orthogonalEdgeStyle;html=1;verticalAlign=bottom;endArrow=open;endSize=8;strokeColor=#ff0000;rounded=0;fontColor=#000000;exitX=0.25;exitY=0.5;exitDx=0;exitDy=0;exitPerimeter=0;entryX=0.5;entryY=0;entryDx=0;entryDy=0;" parent="1" source="32" target="42" edge="1"><mxGeometry relative="1" as="geometry"><mxPoint x="630" y="350" as="targetPoint"/><mxPoint x="630" y="275" as="sourcePoint"/></mxGeometry></mxCell><mxCell id="49" value="Choose Difficulty" style="rounded=1;whiteSpace=wrap;html=1;arcSize=40;fontColor=#000000;fillColor=#ffffc0;strokeColor=#ff0000;" parent="1" vertex="1"><mxGeometry x="640" y="640" width="120" height="40" as="geometry"/></mxCell><mxCell id="50" value="" style="edgeStyle=orthogonalEdgeStyle;html=1;verticalAlign=bottom;endArrow=open;endSize=8;strokeColor=#ff0000;rounded=0;fontColor=#000000;entryX=1;entryY=0.5;entryDx=0;entryDy=0;entryPerimeter=0;" parent="1" source="49" target="44" edge="1"><mxGeometry relative="1" as="geometry"><mxPoint x="610" y="770" as="targetPoint"/></mxGeometry></mxCell><mxCell id="51" value="" style="edgeStyle=orthogonalEdgeStyle;html=1;verticalAlign=bottom;endArrow=open;endSize=8;strokeColor=#ff0000;rounded=0;fontColor=#000000;exitX=0.75;exitY=0.5;exitDx=0;exitDy=0;exitPerimeter=0;entryX=0;entryY=0.5;entryDx=0;entryDy=0;" parent="1" source="44" target="49" edge="1"><mxGeometry relative="1" as="geometry"><mxPoint x="600" y="697.5" as="targetPoint"/><mxPoint x="600" y="622.5" as="sourcePoint"/></mxGeometry></mxCell><mxCell id="52" value="Start Game" style="rounded=1;whiteSpace=wrap;html=1;arcSize=40;fontColor=#000000;fillColor=#ffffc0;strokeColor=#ff0000;" parent="1" vertex="1"><mxGeometry x="220" y="680" width="120" height="40" as="geometry"/></mxCell><mxCell id="53" value="" style="edgeStyle=orthogonalEdgeStyle;html=1;verticalAlign=bottom;endArrow=open;endSize=8;strokeColor=#ff0000;rounded=0;fontColor=#000000;" parent="1" source="52" target="55" edge="1"><mxGeometry relative="1" as="geometry"><mxPoint x="610" y="750" as="targetPoint"/></mxGeometry></mxCell><mxCell id="54" value="" style="edgeStyle=orthogonalEdgeStyle;html=1;verticalAlign=bottom;endArrow=open;endSize=8;strokeColor=#ff0000;rounded=0;fontColor=#000000;exitX=0.499;exitY=0.421;exitDx=0;exitDy=0;exitPerimeter=0;entryX=0.75;entryY=0.5;entryDx=0;entryDy=0;entryPerimeter=0;" parent="1" source="44" target="143" edge="1"><mxGeometry relative="1" as="geometry"><mxPoint x="540" y="690" as="targetPoint"/><mxPoint x="540" y="620" as="sourcePoint"/></mxGeometry></mxCell><mxCell id="55" value="" style="shape=line;html=1;strokeWidth=6;strokeColor=#ff0000;fontColor=#000000;" parent="1" vertex="1"><mxGeometry x="-240" y="760" width="1040" height="10" as="geometry"/></mxCell><mxCell id="56" value="" style="edgeStyle=orthogonalEdgeStyle;html=1;verticalAlign=bottom;endArrow=open;endSize=8;strokeColor=#ff0000;rounded=0;fontColor=#000000;entryX=0.5;entryY=0;entryDx=0;entryDy=0;exitX=0.846;exitY=1;exitDx=0;exitDy=0;exitPerimeter=0;" parent="1" source="55" target="57" edge="1"><mxGeometry relative="1" as="geometry"><mxPoint x="540" y="980" as="targetPoint"/><mxPoint x="660" y="790" as="sourcePoint"/></mxGeometry></mxCell><mxCell id="57" value="Move" style="rounded=1;whiteSpace=wrap;html=1;arcSize=40;fontColor=#000000;fillColor=#ffffc0;strokeColor=#ff0000;" parent="1" vertex="1"><mxGeometry x="660" y="800" width="120" height="40" as="geometry"/></mxCell><mxCell id="58" value="" style="edgeStyle=orthogonalEdgeStyle;html=1;verticalAlign=bottom;endArrow=open;endSize=8;strokeColor=#ff0000;rounded=0;fontColor=#000000;exitX=0.5;exitY=1;exitDx=0;exitDy=0;" parent="1" source="57" edge="1"><mxGeometry relative="1" as="geometry"><mxPoint x="720" y="1040" as="targetPoint"/><mxPoint x="750" y="1286.857142857143" as="sourcePoint"/></mxGeometry></mxCell><mxCell id="59" value="Update screen" style="rounded=1;whiteSpace=wrap;html=1;arcSize=40;fontColor=#000000;fillColor=#ffffc0;strokeColor=#ff0000;" parent="1" vertex="1"><mxGeometry x="660" y="1240" width="120" height="40" as="geometry"/></mxCell><mxCell id="61" value="" style="shape=line;html=1;strokeWidth=6;strokeColor=#ff0000;fontColor=#000000;" parent="1" vertex="1"><mxGeometry x="160" y="1040" width="640" height="10" as="geometry"/></mxCell><mxCell id="64" value="Inventory" style="rounded=1;whiteSpace=wrap;html=1;arcSize=40;fontColor=#000000;fillColor=#ffffc0;strokeColor=#ff0000;" parent="1" vertex="1"><mxGeometry x="520" y="800" width="120" height="40" as="geometry"/></mxCell><mxCell id="65" value="" style="edgeStyle=orthogonalEdgeStyle;html=1;verticalAlign=bottom;endArrow=open;endSize=8;strokeColor=#ff0000;rounded=0;fontColor=#000000;" parent="1" source="64" edge="1"><mxGeometry relative="1" as="geometry"><mxPoint x="580" y="880" as="targetPoint"/></mxGeometry></mxCell><mxCell id="66" value="(Log any events)" style="rounded=1;whiteSpace=wrap;html=1;arcSize=40;fontColor=#000000;fillColor=#ffffc0;strokeColor=#ff0000;" parent="1" vertex="1"><mxGeometry x="660" y="1080" width="120" height="40" as="geometry"/></mxCell><mxCell id="68" value="" style="edgeStyle=orthogonalEdgeStyle;html=1;verticalAlign=bottom;endArrow=open;endSize=8;strokeColor=#ff0000;rounded=0;fontColor=#000000;exitX=0.876;exitY=0.633;exitDx=0;exitDy=0;exitPerimeter=0;entryX=0.5;entryY=0;entryDx=0;entryDy=0;" parent="1" source="61" target="66" edge="1"><mxGeometry relative="1" as="geometry"><mxPoint x="569.8" y="785" as="targetPoint"/><mxPoint x="569.8" y="710" as="sourcePoint"/></mxGeometry></mxCell><mxCell id="70" value="" style="edgeStyle=orthogonalEdgeStyle;html=1;verticalAlign=bottom;endArrow=open;endSize=8;strokeColor=#ff0000;rounded=0;fontColor=#000000;entryX=0.5;entryY=0;entryDx=0;entryDy=0;exitX=0.577;exitY=0.5;exitDx=0;exitDy=0;exitPerimeter=0;" parent="1" source="55" target="64" edge="1"><mxGeometry relative="1" as="geometry"><mxPoint x="589.8" y="805" as="targetPoint"/><mxPoint x="610" y="780" as="sourcePoint"/></mxGeometry></mxCell><mxCell id="71" value="" style="shape=line;html=1;strokeWidth=6;strokeColor=#ff0000;fontColor=#000000;" parent="1" vertex="1"><mxGeometry x="280" y="1160" width="520" height="10" as="geometry"/></mxCell><mxCell id="73" value="" style="edgeStyle=orthogonalEdgeStyle;html=1;verticalAlign=bottom;endArrow=open;endSize=8;strokeColor=#ff0000;rounded=0;fontColor=#000000;exitX=0.5;exitY=1;exitDx=0;exitDy=0;entryX=0.847;entryY=0.552;entryDx=0;entryDy=0;entryPerimeter=0;" parent="1" source="66" target="71" edge="1"><mxGeometry relative="1" as="geometry"><mxPoint x="720" y="1160" as="targetPoint"/><mxPoint x="720" y="1130" as="sourcePoint"/></mxGeometry></mxCell><mxCell id="86" value="View items" style="rounded=1;whiteSpace=wrap;html=1;arcSize=40;fontColor=#000000;fillColor=#ffffc0;strokeColor=#ff0000;" parent="1" vertex="1"><mxGeometry x="520" y="920" width="120" height="40" as="geometry"/></mxCell><mxCell id="87" value="" style="edgeStyle=orthogonalEdgeStyle;html=1;verticalAlign=bottom;endArrow=open;endSize=8;strokeColor=#ff0000;rounded=0;fontColor=#FFFFFF;entryX=0.656;entryY=0;entryDx=0;entryDy=0;entryPerimeter=0;" parent="1" source="86" target="61" edge="1"><mxGeometry relative="1" as="geometry"><mxPoint x="480" y="1020" as="targetPoint"/></mxGeometry></mxCell><mxCell id="88" value="" style="shape=line;html=1;strokeWidth=6;strokeColor=#ff0000;fontColor=#FFFFFF;" parent="1" vertex="1"><mxGeometry x="280" y="880" width="320" height="10" as="geometry"/></mxCell><mxCell id="89" value="" style="edgeStyle=orthogonalEdgeStyle;html=1;verticalAlign=bottom;endArrow=open;endSize=8;strokeColor=#ff0000;rounded=0;fontColor=#FFFFFF;exitX=0.936;exitY=0.505;exitDx=0;exitDy=0;exitPerimeter=0;entryX=0.5;entryY=0;entryDx=0;entryDy=0;" parent="1" source="88" target="86" edge="1"><mxGeometry relative="1" as="geometry"><mxPoint x="500" y="960" as="targetPoint"/></mxGeometry></mxCell><mxCell id="92" value="PlayerDeathEvent" style="edgeStyle=orthogonalEdgeStyle;html=1;align=left;verticalAlign=bottom;endArrow=open;endSize=8;strokeColor=#ff0000;rounded=0;fontColor=#000000;entryX=0.5;entryY=0;entryDx=0;entryDy=0;exitX=0.577;exitY=0.54;exitDx=0;exitDy=0;exitPerimeter=0;" parent="1" source="71" target="98" edge="1"><mxGeometry x="-0.3398" y="-50" relative="1" as="geometry"><mxPoint x="540" y="1210" as="targetPoint"/><mxPoint x="530" y="1212" as="sourcePoint"/><mxPoint as="offset"/></mxGeometry></mxCell><mxCell id="95" value="" style="edgeStyle=orthogonalEdgeStyle;html=1;verticalAlign=bottom;endArrow=open;endSize=8;strokeColor=#ff0000;rounded=0;fontColor=#000000;exitX=0.847;exitY=0.457;exitDx=0;exitDy=0;exitPerimeter=0;entryX=0.5;entryY=0;entryDx=0;entryDy=0;" parent="1" source="71" target="59" edge="1"><mxGeometry relative="1" as="geometry"><mxPoint x="740" y="1220" as="targetPoint"/><mxPoint x="730" y="1290" as="sourcePoint"/></mxGeometry></mxCell><mxCell id="97" value="" style="edgeStyle=orthogonalEdgeStyle;html=1;verticalAlign=bottom;endArrow=open;endSize=8;strokeColor=#ff0000;rounded=0;fontColor=#FFFFFF;exitX=1;exitY=0.5;exitDx=0;exitDy=0;entryX=1;entryY=0.5;entryDx=0;entryDy=0;entryPerimeter=0;" parent="1" source="59" target="55" edge="1"><mxGeometry relative="1" as="geometry"><mxPoint x="490" y="1030" as="targetPoint"/><mxPoint x="530" y="950" as="sourcePoint"/><Array as="points"><mxPoint x="820" y="1260"/><mxPoint x="820" y="765"/></Array></mxGeometry></mxCell><mxCell id="98" value="Show death screen" style="rounded=1;whiteSpace=wrap;html=1;arcSize=40;fontColor=#000000;fillColor=#ffffc0;strokeColor=#ff0000;" parent="1" vertex="1"><mxGeometry x="520" y="1240" width="120" height="40" as="geometry"/></mxCell><mxCell id="99" value="" style="edgeStyle=orthogonalEdgeStyle;html=1;verticalAlign=bottom;endArrow=open;endSize=8;strokeColor=#ff0000;rounded=0;fontColor=#FFFFFF;" parent="1" source="98" edge="1"><mxGeometry relative="1" as="geometry"><mxPoint x="580" y="1340" as="targetPoint"/></mxGeometry></mxCell><mxCell id="100" value="Show victory screen" style="rounded=1;whiteSpace=wrap;html=1;arcSize=40;fontColor=#000000;fillColor=#ffffc0;strokeColor=#ff0000;" parent="1" vertex="1"><mxGeometry x="380" y="1240" width="120" height="40" as="geometry"/></mxCell><mxCell id="101" value="" style="edgeStyle=orthogonalEdgeStyle;html=1;verticalAlign=bottom;endArrow=open;endSize=8;strokeColor=#ff0000;rounded=0;fontColor=#FFFFFF;" parent="1" source="100" edge="1"><mxGeometry relative="1" as="geometry"><mxPoint x="440" y="1340" as="targetPoint"/></mxGeometry></mxCell><mxCell id="102" value="AllGoalsFulfilledEvent" style="edgeStyle=orthogonalEdgeStyle;html=1;align=left;verticalAlign=bottom;endArrow=open;endSize=8;strokeColor=#ff0000;rounded=0;fontColor=#000000;entryX=0.5;entryY=0;entryDx=0;entryDy=0;exitX=0.307;exitY=0.38;exitDx=0;exitDy=0;exitPerimeter=0;" parent="1" source="71" target="100" edge="1"><mxGeometry x="-0.3144" y="-60" relative="1" as="geometry"><mxPoint x="590" y="1250" as="targetPoint"/><mxPoint x="590.04" y="1175.4" as="sourcePoint"/><mxPoint as="offset"/></mxGeometry></mxCell><mxCell id="103" value="" style="shape=line;html=1;strokeWidth=6;strokeColor=#ff0000;fontColor=#FFFFFF;" parent="1" vertex="1"><mxGeometry x="420" y="1340" width="180" height="10" as="geometry"/></mxCell><mxCell id="104" value="" style="edgeStyle=orthogonalEdgeStyle;html=1;verticalAlign=bottom;endArrow=open;endSize=8;strokeColor=#ff0000;rounded=0;fontColor=#FFFFFF;entryX=0.5;entryY=0;entryDx=0;entryDy=0;exitX=0.89;exitY=0.529;exitDx=0;exitDy=0;exitPerimeter=0;" parent="1" source="103" target="105" edge="1"><mxGeometry relative="1" as="geometry"><mxPoint x="500" y="1420" as="targetPoint"/></mxGeometry></mxCell><mxCell id="105" value="Restart" style="rounded=1;whiteSpace=wrap;html=1;arcSize=40;fontColor=#000000;fillColor=#ffffc0;strokeColor=#ff0000;" parent="1" vertex="1"><mxGeometry x="520" y="1400" width="120" height="40" as="geometry"/></mxCell><mxCell id="106" value="" style="edgeStyle=orthogonalEdgeStyle;html=1;verticalAlign=bottom;endArrow=open;endSize=8;strokeColor=#ff0000;rounded=0;fontColor=#FFFFFF;entryX=1;entryY=0.5;entryDx=0;entryDy=0;entryPerimeter=0;" parent="1" source="105" target="143" edge="1"><mxGeometry relative="1" as="geometry"><mxPoint x="680" y="700" as="targetPoint"/><Array as="points"><mxPoint x="840" y="1420"/><mxPoint x="840" y="700"/></Array></mxGeometry></mxCell><mxCell id="108" value="Use item" style="rounded=1;whiteSpace=wrap;html=1;arcSize=40;fontColor=#000000;fillColor=#ffffc0;strokeColor=#ff0000;" parent="1" vertex="1"><mxGeometry x="380" y="920" width="120" height="40" as="geometry"/></mxCell><mxCell id="109" value="" style="edgeStyle=orthogonalEdgeStyle;html=1;verticalAlign=bottom;endArrow=open;endSize=8;strokeColor=#ff0000;rounded=0;fontColor=#FFFFFF;entryX=0.438;entryY=0.248;entryDx=0;entryDy=0;entryPerimeter=0;" parent="1" source="108" target="61" edge="1"><mxGeometry relative="1" as="geometry"><mxPoint x="460" y="1010" as="targetPoint"/></mxGeometry></mxCell><mxCell id="110" value="" style="edgeStyle=orthogonalEdgeStyle;html=1;verticalAlign=bottom;endArrow=open;endSize=8;strokeColor=#ff0000;rounded=0;fontColor=#FFFFFF;exitX=0.5;exitY=0.452;exitDx=0;exitDy=0;exitPerimeter=0;entryX=0.5;entryY=0;entryDx=0;entryDy=0;" parent="1" source="88" target="108" edge="1"><mxGeometry relative="1" as="geometry"><mxPoint x="440" y="1060" as="targetPoint"/><mxPoint x="440" y="1000" as="sourcePoint"/></mxGeometry></mxCell><mxCell id="111" value="Equip weapon" style="rounded=1;whiteSpace=wrap;html=1;arcSize=40;fontColor=#000000;fillColor=#ffffc0;strokeColor=#ff0000;" parent="1" vertex="1"><mxGeometry x="240" y="920" width="120" height="40" as="geometry"/></mxCell><mxCell id="112" value="" style="edgeStyle=orthogonalEdgeStyle;html=1;verticalAlign=bottom;endArrow=open;endSize=8;strokeColor=#ff0000;rounded=0;fontColor=#FFFFFF;entryX=0.219;entryY=0;entryDx=0;entryDy=0;entryPerimeter=0;" parent="1" source="111" target="61" edge="1"><mxGeometry relative="1" as="geometry"><mxPoint x="300" y="1020" as="targetPoint"/></mxGeometry></mxCell><mxCell id="113" value="" style="edgeStyle=orthogonalEdgeStyle;html=1;verticalAlign=bottom;endArrow=open;endSize=8;strokeColor=#ff0000;rounded=0;fontColor=#FFFFFF;exitX=0.062;exitY=0.532;exitDx=0;exitDy=0;exitPerimeter=0;entryX=0.5;entryY=0;entryDx=0;entryDy=0;" parent="1" source="88" target="111" edge="1"><mxGeometry relative="1" as="geometry"><mxPoint x="310" y="910" as="targetPoint"/><mxPoint x="450" y="1010" as="sourcePoint"/></mxGeometry></mxCell><mxCell id="114" value="Select enemy" style="rounded=1;whiteSpace=wrap;html=1;arcSize=40;fontColor=#000000;fillColor=#ffffc0;strokeColor=#ff0000;" parent="1" vertex="1"><mxGeometry x="120" y="800" width="120" height="40" as="geometry"/></mxCell><mxCell id="115" value="" style="edgeStyle=orthogonalEdgeStyle;html=1;verticalAlign=bottom;endArrow=open;endSize=8;strokeColor=#ff0000;rounded=0;fontColor=#FFFFFF;entryX=0.895;entryY=0;entryDx=0;entryDy=0;entryPerimeter=0;" parent="1" source="114" target="116" edge="1"><mxGeometry relative="1" as="geometry"><mxPoint x="190" y="910" as="targetPoint"/></mxGeometry></mxCell><mxCell id="116" value="" style="shape=line;html=1;strokeWidth=6;strokeColor=#ff0000;fontColor=#FFFFFF;" parent="1" vertex="1"><mxGeometry x="10" y="920" width="190" height="10" as="geometry"/></mxCell><mxCell id="117" value="" style="edgeStyle=orthogonalEdgeStyle;html=1;verticalAlign=bottom;endArrow=open;endSize=8;strokeColor=#ff0000;rounded=0;fontColor=#FFFFFF;exitX=0.106;exitY=0.594;exitDx=0;exitDy=0;exitPerimeter=0;entryX=0.5;entryY=0;entryDx=0;entryDy=0;" parent="1" source="116" target="122" edge="1"><mxGeometry relative="1" as="geometry"><mxPoint x="120" y="1000" as="targetPoint"/></mxGeometry></mxCell><mxCell id="118" value="" style="edgeStyle=orthogonalEdgeStyle;html=1;verticalAlign=bottom;endArrow=open;endSize=8;strokeColor=#ff0000;rounded=0;fontColor=#FFFFFF;exitX=0.404;exitY=0.66;exitDx=0;exitDy=0;exitPerimeter=0;entryX=0.5;entryY=0;entryDx=0;entryDy=0;" parent="1" source="55" target="114" edge="1"><mxGeometry relative="1" as="geometry"><mxPoint x="80" y="880" as="targetPoint"/><mxPoint x="80" y="840" as="sourcePoint"/></mxGeometry></mxCell><mxCell id="119" value="Back" style="rounded=1;whiteSpace=wrap;html=1;arcSize=40;fontColor=#000000;fillColor=#ffffc0;strokeColor=#ff0000;" parent="1" vertex="1"><mxGeometry y="850" width="120" height="40" as="geometry"/></mxCell><mxCell id="120" value="" style="edgeStyle=orthogonalEdgeStyle;html=1;verticalAlign=bottom;endArrow=open;endSize=8;strokeColor=#ff0000;rounded=0;fontColor=#FFFFFF;entryX=0.288;entryY=0.74;entryDx=0;entryDy=0;entryPerimeter=0;" parent="1" source="119" target="55" edge="1"><mxGeometry relative="1" as="geometry"><mxPoint x="55" y="930" as="targetPoint"/></mxGeometry></mxCell><mxCell id="121" value="" style="edgeStyle=orthogonalEdgeStyle;html=1;verticalAlign=bottom;endArrow=open;endSize=8;strokeColor=#ff0000;rounded=0;fontColor=#FFFFFF;entryX=0.5;entryY=1;entryDx=0;entryDy=0;exitX=0.263;exitY=0.372;exitDx=0;exitDy=0;exitPerimeter=0;" parent="1" source="116" target="119" edge="1"><mxGeometry relative="1" as="geometry"><mxPoint x="90" y="890" as="targetPoint"/><mxPoint x="110" y="900" as="sourcePoint"/></mxGeometry></mxCell><mxCell id="122" value="Attack" style="rounded=1;whiteSpace=wrap;html=1;arcSize=40;fontColor=#000000;fillColor=#ffffc0;strokeColor=#ff0000;" parent="1" vertex="1"><mxGeometry x="-30" y="960" width="120" height="40" as="geometry"/></mxCell><mxCell id="123" value="" style="edgeStyle=orthogonalEdgeStyle;html=1;verticalAlign=bottom;endArrow=open;endSize=8;strokeColor=#ff0000;rounded=0;fontColor=#FFFFFF;entryX=0;entryY=0.5;entryDx=0;entryDy=0;" parent="1" source="122" target="127" edge="1"><mxGeometry relative="1" as="geometry"><mxPoint x="-60" y="1030" as="targetPoint"/></mxGeometry></mxCell><mxCell id="127" value="Enemies attack" style="rounded=1;whiteSpace=wrap;html=1;arcSize=40;fontColor=#000000;fillColor=#ffffc0;strokeColor=#ff0000;" parent="1" vertex="1"><mxGeometry x="120" y="960" width="120" height="40" as="geometry"/></mxCell><mxCell id="128" value="" style="edgeStyle=orthogonalEdgeStyle;html=1;verticalAlign=bottom;endArrow=open;endSize=8;strokeColor=#ff0000;rounded=0;fontColor=#FFFFFF;entryX=0.031;entryY=0.463;entryDx=0;entryDy=0;entryPerimeter=0;" parent="1" source="127" target="61" edge="1"><mxGeometry relative="1" as="geometry"><mxPoint x="210" y="1020" as="targetPoint"/></mxGeometry></mxCell><mxCell id="129" value="Pause" style="rounded=1;whiteSpace=wrap;html=1;arcSize=40;fontColor=#000000;fillColor=#ffffc0;strokeColor=#ff0000;" parent="1" vertex="1"><mxGeometry x="-160" y="800" width="120" height="40" as="geometry"/></mxCell><mxCell id="130" value="" style="edgeStyle=orthogonalEdgeStyle;html=1;verticalAlign=bottom;endArrow=open;endSize=8;strokeColor=#ff0000;rounded=0;fontColor=#FFFFFF;entryX=0.963;entryY=0.333;entryDx=0;entryDy=0;entryPerimeter=0;" parent="1" source="129" target="131" edge="1"><mxGeometry relative="1" as="geometry"><mxPoint x="-100" y="900" as="targetPoint"/></mxGeometry></mxCell><mxCell id="131" value="" style="shape=line;html=1;strokeWidth=6;strokeColor=#ff0000;fontColor=#FFFFFF;" parent="1" vertex="1"><mxGeometry x="-600" y="920" width="520" height="10" as="geometry"/></mxCell><mxCell id="132" value="" style="edgeStyle=orthogonalEdgeStyle;html=1;verticalAlign=bottom;endArrow=open;endSize=8;strokeColor=#ff0000;rounded=0;fontColor=#FFFFFF;entryX=0.5;entryY=1;entryDx=0;entryDy=0;exitX=0.576;exitY=0.648;exitDx=0;exitDy=0;exitPerimeter=0;" parent="1" source="131" target="138" edge="1"><mxGeometry relative="1" as="geometry"><mxPoint x="-130" y="1010" as="targetPoint"/></mxGeometry></mxCell><mxCell id="133" value="Resume" style="rounded=1;whiteSpace=wrap;html=1;arcSize=40;fontColor=#000000;fillColor=#ffffc0;strokeColor=#ff0000;" parent="1" vertex="1"><mxGeometry x="-280" y="850" width="120" height="40" as="geometry"/></mxCell><mxCell id="134" value="" style="edgeStyle=orthogonalEdgeStyle;html=1;verticalAlign=bottom;endArrow=open;endSize=8;strokeColor=#ff0000;rounded=0;fontColor=#FFFFFF;entryX=0.02;entryY=0.552;entryDx=0;entryDy=0;entryPerimeter=0;" parent="1" source="133" target="55" edge="1"><mxGeometry relative="1" as="geometry"><mxPoint x="-220" y="950" as="targetPoint"/></mxGeometry></mxCell><mxCell id="135" value="" style="edgeStyle=orthogonalEdgeStyle;html=1;verticalAlign=bottom;endArrow=open;endSize=8;strokeColor=#ff0000;rounded=0;fontColor=#FFFFFF;entryX=0.5;entryY=0;entryDx=0;entryDy=0;exitX=0.135;exitY=0.428;exitDx=0;exitDy=0;exitPerimeter=0;" parent="1" source="55" target="129" edge="1"><mxGeometry relative="1" as="geometry"><mxPoint x="100" y="900" as="targetPoint"/><mxPoint x="-100" y="780" as="sourcePoint"/></mxGeometry></mxCell><mxCell id="136" value="" style="edgeStyle=orthogonalEdgeStyle;html=1;verticalAlign=bottom;endArrow=open;endSize=8;strokeColor=#ff0000;rounded=0;fontColor=#FFFFFF;entryX=0.5;entryY=1;entryDx=0;entryDy=0;" parent="1" target="133" edge="1"><mxGeometry relative="1" as="geometry"><mxPoint x="110" y="910" as="targetPoint"/><mxPoint x="-220" y="920" as="sourcePoint"/></mxGeometry></mxCell><mxCell id="138" value="Restart" style="rounded=1;whiteSpace=wrap;html=1;arcSize=40;fontColor=#000000;fillColor=#ffffc0;strokeColor=#ff0000;" parent="1" vertex="1"><mxGeometry x="-360" y="790" width="120" height="40" as="geometry"/></mxCell><mxCell id="139" value="" style="edgeStyle=orthogonalEdgeStyle;html=1;verticalAlign=bottom;endArrow=open;endSize=8;strokeColor=#ff0000;rounded=0;fontColor=#FFFFFF;entryX=1;entryY=0.5;entryDx=0;entryDy=0;" parent="1" source="138" target="140" edge="1"><mxGeometry relative="1" as="geometry"><mxPoint x="-300" y="890" as="targetPoint"/></mxGeometry></mxCell><mxCell id="140" value="&lt;font color=&quot;#000000&quot;&gt;Confirm restart?&lt;/font&gt;" style="rhombus;whiteSpace=wrap;html=1;fillColor=#ffffc0;strokeColor=#ff0000;fontColor=#FFFFFF;" parent="1" vertex="1"><mxGeometry x="-480" y="780" width="80" height="60" as="geometry"/></mxCell><mxCell id="141" value="&lt;font color=&quot;#000000&quot;&gt;no&lt;/font&gt;" style="edgeStyle=orthogonalEdgeStyle;html=1;align=left;verticalAlign=bottom;endArrow=open;endSize=8;strokeColor=#ff0000;rounded=0;fontColor=#FFFFFF;entryX=0.309;entryY=0.41;entryDx=0;entryDy=0;entryPerimeter=0;" parent="1" source="140" target="131" edge="1"><mxGeometry x="-0.7642" y="1" relative="1" as="geometry"><mxPoint x="-470" y="910" as="targetPoint"/><mxPoint as="offset"/></mxGeometry></mxCell><mxCell id="142" value="&lt;font color=&quot;#000000&quot;&gt;yes&lt;/font&gt;" style="edgeStyle=orthogonalEdgeStyle;html=1;align=left;verticalAlign=top;endArrow=open;endSize=8;strokeColor=#ff0000;rounded=0;fontColor=#FFFFFF;exitX=0.5;exitY=0;exitDx=0;exitDy=0;entryX=0.25;entryY=0.5;entryDx=0;entryDy=0;entryPerimeter=0;" parent="1" source="140" target="143" edge="1"><mxGeometry x="-0.96" relative="1" as="geometry"><mxPoint x="170" y="660" as="targetPoint"/><mxPoint x="-400" y="730" as="sourcePoint"/><Array as="points"><mxPoint x="-440" y="660"/><mxPoint x="500" y="660"/></Array><mxPoint as="offset"/></mxGeometry></mxCell><mxCell id="143" value="" style="shape=line;html=1;strokeWidth=6;strokeColor=#ff0000;fontColor=#000000;" parent="1" vertex="1"><mxGeometry x="480" y="695" width="80" height="10" as="geometry"/></mxCell><mxCell id="144" value="" style="edgeStyle=orthogonalEdgeStyle;html=1;verticalAlign=bottom;endArrow=open;endSize=8;strokeColor=#ff0000;rounded=0;fontColor=#000000;entryX=1;entryY=0.5;entryDx=0;entryDy=0;" parent="1" source="143" target="52" edge="1"><mxGeometry relative="1" as="geometry"><mxPoint x="370" y="670" as="targetPoint"/></mxGeometry></mxCell><mxCell id="146" value="Main Menu" style="rounded=1;whiteSpace=wrap;html=1;arcSize=40;fontColor=#000000;fillColor=#ffffc0;strokeColor=#ff0000;" parent="1" vertex="1"><mxGeometry x="-600" y="840" width="120" height="40" as="geometry"/></mxCell><mxCell id="147" value="" style="edgeStyle=orthogonalEdgeStyle;html=1;verticalAlign=bottom;endArrow=open;endSize=8;strokeColor=#ff0000;rounded=0;fontColor=#000000;entryX=0;entryY=0.5;entryDx=0;entryDy=0;entryPerimeter=0;exitX=0.5;exitY=0;exitDx=0;exitDy=0;" parent="1" source="146" edge="1" target="8"><mxGeometry relative="1" as="geometry"><mxPoint x="-590" y="660" as="targetPoint"/></mxGeometry></mxCell><mxCell id="148" value="" style="edgeStyle=orthogonalEdgeStyle;html=1;verticalAlign=bottom;endArrow=open;endSize=8;strokeColor=#ff0000;rounded=0;fontColor=#FFFFFF;entryX=0.5;entryY=1;entryDx=0;entryDy=0;" parent="1" target="146" edge="1"><mxGeometry relative="1" as="geometry"><mxPoint x="-370" y="970" as="targetPoint"/><mxPoint x="-540" y="920" as="sourcePoint"/></mxGeometry></mxCell><mxCell id="149" value="Main Menu" style="rounded=1;whiteSpace=wrap;html=1;arcSize=40;fontColor=#000000;fillColor=#ffffc0;strokeColor=#ff0000;" vertex="1" parent="1"><mxGeometry x="380" y="1400" width="120" height="40" as="geometry"/></mxCell><mxCell id="150" value="" style="edgeStyle=orthogonalEdgeStyle;html=1;verticalAlign=bottom;endArrow=open;endSize=8;strokeColor=#ff0000;rounded=0;entryX=0.25;entryY=0.5;entryDx=0;entryDy=0;entryPerimeter=0;" edge="1" source="149" parent="1" target="8"><mxGeometry relative="1" as="geometry"><mxPoint x="188" y="30" as="targetPoint"/><Array as="points"><mxPoint x="-660" y="1420"/><mxPoint x="-660" y="30"/><mxPoint x="380" y="30"/></Array></mxGeometry></mxCell><mxCell id="151" value="" style="edgeStyle=orthogonalEdgeStyle;html=1;verticalAlign=bottom;endArrow=open;endSize=8;strokeColor=#ff0000;rounded=0;fontColor=#FFFFFF;entryX=0.5;entryY=0;entryDx=0;entryDy=0;exitX=0.11;exitY=0.46;exitDx=0;exitDy=0;exitPerimeter=0;" edge="1" parent="1" source="103" target="149"><mxGeometry relative="1" as="geometry"><mxPoint x="80" y="880" as="targetPoint"/><mxPoint x="460" y="1360" as="sourcePoint"/></mxGeometry></mxCell></root></mxGraphModel></diagram></mxfile>